<svg xmlns="http://www.w3.org/2000/svg" xmlns:xlink="http://www.w3.org/1999/xlink" width="100" zoomAndPan="magnify" viewBox="0 0 75 74.999997" height="100" preserveAspectRatio="xMidYMid meet" version="1.0"><defs><g/><clipPath id="a210e8dd03"><path d="M 3.75 5.707031 L 71.304688 5.707031 L 71.304688 69.292969 L 3.75 69.292969 Z M 3.75 5.707031 " clip-rule="nonzero"/></clipPath><clipPath id="d37ac69f7c"><path d="M 7.5 5.707031 L 67.5 5.707031 C 69.570312 5.707031 71.25 7.386719 71.25 9.457031 L 71.25 65.542969 C 71.25 67.613281 69.570312 69.292969 67.5 69.292969 L 7.5 69.292969 C 5.429688 69.292969 3.75 67.613281 3.75 65.542969 L 3.75 9.457031 C 3.75 7.386719 5.429688 5.707031 7.5 5.707031 Z M 7.5 5.707031 " clip-rule="nonzero"/></clipPath><clipPath id="dbe034a775"><path d="M 5.40625 6.605469 L 69.90625 6.605469 L 69.90625 68.105469 L 5.40625 68.105469 Z M 5.40625 6.605469 " clip-rule="nonzero"/></clipPath><clipPath id="531515f1bc"><path d="M 9.15625 6.605469 L 66.140625 6.605469 C 67.132812 6.605469 68.085938 7 68.789062 7.703125 C 69.492188 8.40625 69.890625 9.359375 69.890625 10.355469 L 69.890625 64.636719 C 69.890625 65.628906 69.492188 66.585938 68.789062 67.289062 C 68.085938 67.992188 67.132812 68.386719 66.140625 68.386719 L 9.15625 68.386719 C 8.164062 68.386719 7.210938 67.992188 6.507812 67.289062 C 5.804688 66.585938 5.40625 65.628906 5.40625 64.636719 L 5.40625 10.355469 C 5.40625 9.359375 5.804688 8.40625 6.507812 7.703125 C 7.210938 7 8.164062 6.605469 9.15625 6.605469 Z M 9.15625 6.605469 " clip-rule="nonzero"/></clipPath><clipPath id="f1bf03b215"><path d="M 40 13 L 58 13 L 58 32 L 40 32 Z M 40 13 " clip-rule="nonzero"/></clipPath><clipPath id="4469ac9e2c"><path d="M 52.652344 11.78125 L 59.429688 18.066406 L 45.011719 33.605469 L 38.238281 27.320312 Z M 52.652344 11.78125 " clip-rule="nonzero"/></clipPath><clipPath id="5c9d931cf0"><path d="M 56.039062 14.925781 C 57.910156 16.660156 58.019531 19.585938 56.285156 21.457031 L 48.15625 30.214844 C 46.421875 32.085938 43.496094 32.195312 41.625 30.460938 C 39.753906 28.722656 39.644531 25.800781 41.382812 23.929688 L 49.507812 15.167969 C 51.246094 13.296875 54.167969 13.1875 56.039062 14.925781 Z M 56.039062 14.925781 " clip-rule="nonzero"/></clipPath></defs><g clip-path="url(#a210e8dd03)"><g clip-path="url(#d37ac69f7c)"><path fill="#ce1d3f" d="M 3.75 5.707031 L 71.304688 5.707031 L 71.304688 69.292969 L 3.75 69.292969 Z M 3.75 5.707031 " fill-opacity="1" fill-rule="nonzero"/></g></g><g clip-path="url(#dbe034a775)"><g clip-path="url(#531515f1bc)"><path stroke-linecap="butt" transform="matrix(0.75, 0, 0, 0.75, 5.408089, 6.604351)" fill="none" stroke-linejoin="miter" d="M 4.997548 0.00149052 L 80.976721 0.00149052 C 82.299638 0.00149052 83.570471 0.527532 84.507971 1.465032 C 85.445471 2.402532 85.976721 3.673366 85.976721 5.001491 L 85.976721 77.376497 C 85.976721 78.699414 85.445471 79.975455 84.507971 80.912955 C 83.570471 81.850456 82.299638 82.376497 80.976721 82.376497 L 4.997548 82.376497 C 3.674631 82.376497 2.403798 81.850456 1.466298 80.912955 C 0.528798 79.975455 -0.0024524 78.699414 -0.0024524 77.376497 L -0.0024524 5.001491 C -0.0024524 3.673366 0.528798 2.402532 1.466298 1.465032 C 2.403798 0.527532 3.674631 0.00149052 4.997548 0.00149052 Z M 4.997548 0.00149052 " stroke="#ffffff" stroke-width="2" stroke-opacity="1" stroke-miterlimit="4"/></g></g><g fill="#ffffff" fill-opacity="1"><g transform="translate(14.407088, 55.922129)"><g><path d="M 23.203125 1.203125 C 19.222656 1.203125 15.78125 0.398438 12.875 -1.203125 C 9.976562 -2.816406 7.738281 -5.1875 6.15625 -8.3125 C 4.570312 -11.4375 3.78125 -15.164062 3.78125 -19.5 C 3.78125 -23.726562 4.582031 -27.378906 6.1875 -30.453125 C 7.800781 -33.523438 10.054688 -35.878906 12.953125 -37.515625 C 15.847656 -39.148438 19.1875 -39.96875 22.96875 -39.96875 C 26.945312 -39.96875 30.382812 -39.160156 33.28125 -37.546875 C 36.175781 -35.941406 38.414062 -33.578125 40 -30.453125 C 41.59375 -27.328125 42.390625 -23.597656 42.390625 -19.265625 C 42.390625 -15.035156 41.582031 -11.382812 39.96875 -8.3125 C 38.351562 -5.238281 36.097656 -2.882812 33.203125 -1.25 C 30.304688 0.382812 26.972656 1.203125 23.203125 1.203125 Z M 23.203125 -4.3125 C 25.765625 -4.3125 28.015625 -4.851562 29.953125 -5.9375 C 31.898438 -7.019531 33.414062 -8.679688 34.5 -10.921875 C 35.582031 -13.160156 36.125 -15.941406 36.125 -19.265625 C 36.125 -22.640625 35.566406 -25.457031 34.453125 -27.71875 C 33.347656 -29.988281 31.8125 -31.675781 29.84375 -32.78125 C 27.882812 -33.894531 25.59375 -34.453125 22.96875 -34.453125 C 20.40625 -34.453125 18.148438 -33.910156 16.203125 -32.828125 C 14.265625 -31.742188 12.753906 -30.082031 11.671875 -27.84375 C 10.585938 -25.601562 10.046875 -22.820312 10.046875 -19.5 C 10.046875 -16.125 10.597656 -13.300781 11.703125 -11.03125 C 12.816406 -8.757812 14.351562 -7.070312 16.3125 -5.96875 C 18.28125 -4.863281 20.578125 -4.3125 23.203125 -4.3125 Z M 23.203125 -4.3125 "/></g></g></g><g clip-path="url(#f1bf03b215)"><g clip-path="url(#4469ac9e2c)"><g clip-path="url(#5c9d931cf0)"><path fill="#ffffff" d="M 52.652344 11.78125 L 59.429688 18.066406 L 45.011719 33.605469 L 38.238281 27.320312 Z M 52.652344 11.78125 " fill-opacity="1" fill-rule="nonzero"/></g></g></g><g fill="#ffffff" fill-opacity="1"><g transform="translate(44.978057, 63.232924)"><g><path d="M 3.140625 0.125 C 2.734375 0.125 2.351562 0.0507812 2 -0.09375 C 1.65625 -0.25 1.351562 -0.453125 1.09375 -0.703125 C 0.84375 -0.953125 0.644531 -1.25 0.5 -1.59375 C 0.363281 -1.9375 0.296875 -2.300781 0.296875 -2.6875 L 0.296875 -2.703125 C 0.296875 -3.085938 0.363281 -3.453125 0.5 -3.796875 C 0.644531 -4.140625 0.84375 -4.4375 1.09375 -4.6875 C 1.351562 -4.945312 1.660156 -5.148438 2.015625 -5.296875 C 2.378906 -5.453125 2.773438 -5.53125 3.203125 -5.53125 C 3.753906 -5.53125 4.21875 -5.421875 4.59375 -5.203125 C 4.976562 -4.984375 5.285156 -4.691406 5.515625 -4.328125 L 4.234375 -3.375 C 4.097656 -3.539062 3.953125 -3.675781 3.796875 -3.78125 C 3.640625 -3.882812 3.445312 -3.9375 3.21875 -3.9375 C 2.914062 -3.9375 2.660156 -3.816406 2.453125 -3.578125 C 2.242188 -3.335938 2.140625 -3.054688 2.140625 -2.734375 L 2.140625 -2.703125 C 2.140625 -2.359375 2.238281 -2.066406 2.4375 -1.828125 C 2.644531 -1.585938 2.910156 -1.46875 3.234375 -1.46875 C 3.460938 -1.46875 3.65625 -1.519531 3.8125 -1.625 C 3.96875 -1.726562 4.117188 -1.863281 4.265625 -2.03125 L 5.546875 -1.109375 C 5.296875 -0.742188 4.976562 -0.445312 4.59375 -0.21875 C 4.207031 0.0078125 3.722656 0.125 3.140625 0.125 Z M 3.140625 0.125 "/></g></g></g><g fill="#ffffff" fill-opacity="1"><g transform="translate(50.687708, 63.232924)"><g><path d="M 0.515625 0 L 0.515625 -5.421875 L 2.421875 -5.421875 L 2.421875 -4.6875 C 2.585938 -4.914062 2.800781 -5.113281 3.0625 -5.28125 C 3.320312 -5.457031 3.644531 -5.546875 4.03125 -5.546875 C 4.394531 -5.546875 4.707031 -5.46875 4.96875 -5.3125 C 5.238281 -5.15625 5.445312 -4.941406 5.59375 -4.671875 C 5.832031 -4.929688 6.097656 -5.140625 6.390625 -5.296875 C 6.679688 -5.460938 7.019531 -5.546875 7.40625 -5.546875 C 7.988281 -5.546875 8.441406 -5.367188 8.765625 -5.015625 C 9.097656 -4.671875 9.265625 -4.1875 9.265625 -3.5625 L 9.265625 0 L 7.359375 0 L 7.359375 -2.953125 C 7.359375 -3.242188 7.289062 -3.46875 7.15625 -3.625 C 7.03125 -3.78125 6.851562 -3.859375 6.625 -3.859375 C 6.394531 -3.859375 6.207031 -3.78125 6.0625 -3.625 C 5.914062 -3.46875 5.84375 -3.242188 5.84375 -2.953125 L 5.84375 0 L 3.9375 0 L 3.9375 -2.953125 C 3.9375 -3.242188 3.867188 -3.46875 3.734375 -3.625 C 3.597656 -3.78125 3.414062 -3.859375 3.1875 -3.859375 C 2.957031 -3.859375 2.769531 -3.78125 2.625 -3.625 C 2.488281 -3.46875 2.421875 -3.242188 2.421875 -2.953125 L 2.421875 0 Z M 0.515625 0 "/></g></g></g><g fill="#ffffff" fill-opacity="1"><g transform="translate(60.431241, 63.232924)"><g><path d="M 2.671875 0.125 C 2.210938 0.125 1.757812 0.0546875 1.3125 -0.078125 C 0.875 -0.222656 0.472656 -0.425781 0.109375 -0.6875 L 0.828125 -1.828125 C 1.128906 -1.628906 1.441406 -1.476562 1.765625 -1.375 C 2.085938 -1.269531 2.390625 -1.21875 2.671875 -1.21875 C 2.835938 -1.21875 2.960938 -1.238281 3.046875 -1.28125 C 3.128906 -1.332031 3.171875 -1.40625 3.171875 -1.5 L 3.171875 -1.53125 C 3.171875 -1.632812 3.09375 -1.71875 2.9375 -1.78125 C 2.789062 -1.84375 2.570312 -1.914062 2.28125 -2 C 2.019531 -2.0625 1.769531 -2.140625 1.53125 -2.234375 C 1.300781 -2.328125 1.097656 -2.4375 0.921875 -2.5625 C 0.742188 -2.6875 0.601562 -2.84375 0.5 -3.03125 C 0.40625 -3.226562 0.359375 -3.457031 0.359375 -3.71875 L 0.359375 -3.734375 C 0.359375 -4.023438 0.410156 -4.28125 0.515625 -4.5 C 0.628906 -4.726562 0.78125 -4.914062 0.96875 -5.0625 C 1.164062 -5.21875 1.394531 -5.332031 1.65625 -5.40625 C 1.925781 -5.488281 2.21875 -5.53125 2.53125 -5.53125 C 2.925781 -5.53125 3.320312 -5.472656 3.71875 -5.359375 C 4.113281 -5.253906 4.46875 -5.101562 4.78125 -4.90625 L 4.125 -3.703125 C 3.84375 -3.859375 3.554688 -3.984375 3.265625 -4.078125 C 2.984375 -4.171875 2.734375 -4.21875 2.515625 -4.21875 C 2.367188 -4.21875 2.257812 -4.191406 2.1875 -4.140625 C 2.113281 -4.085938 2.078125 -4.019531 2.078125 -3.9375 L 2.078125 -3.921875 C 2.078125 -3.816406 2.148438 -3.734375 2.296875 -3.671875 C 2.453125 -3.609375 2.671875 -3.53125 2.953125 -3.4375 C 3.222656 -3.363281 3.472656 -3.28125 3.703125 -3.1875 C 3.941406 -3.101562 4.144531 -2.992188 4.3125 -2.859375 C 4.488281 -2.734375 4.628906 -2.578125 4.734375 -2.390625 C 4.835938 -2.203125 4.890625 -1.976562 4.890625 -1.71875 L 4.890625 -1.6875 C 4.890625 -1.09375 4.679688 -0.640625 4.265625 -0.328125 C 3.859375 -0.0234375 3.328125 0.125 2.671875 0.125 Z M 2.671875 0.125 "/></g></g></g></svg>