<svg width="20" height="18" viewBox="0 0 20 18" fill="none" xmlns="http://www.w3.org/2000/svg">
<path d="M0.692308 1.87865e-08C0.508696 1.87865e-08 0.332605 0.0718951 0.202772 0.199869C0.0729394 0.327844 0 0.501414 0 0.682397C0 0.86338 0.0729394 1.03695 0.202772 1.16492C0.332605 1.2929 0.508696 1.36479 0.692308 1.36479H1.97169C2.12862 1.36479 2.26523 1.46852 2.30585 1.61774L4.66708 10.3451C3.92545 10.5356 3.26886 10.9632 2.80015 11.5608C2.33144 12.1585 2.07708 12.8925 2.07692 13.6479C2.07692 14.0246 2.38708 14.3303 2.76923 14.3303H17.3077C17.4913 14.3303 17.6674 14.2584 17.7972 14.1305C17.9271 14.0025 18 13.8289 18 13.6479C18 13.467 17.9271 13.2934 17.7972 13.1654C17.6674 13.0374 17.4913 12.9655 17.3077 12.9655H3.57969C3.72289 12.5663 3.98817 12.2207 4.33898 11.9762C4.68978 11.7318 5.10886 11.6006 5.53846 11.6007H15.8935C16.0232 11.6007 16.1503 11.5648 16.2603 11.4971C16.3703 11.4294 16.4588 11.3326 16.5157 11.2177C17.5696 9.08598 18.4822 6.88922 19.248 4.64121C19.2783 4.55228 19.2896 4.45816 19.2813 4.36472C19.273 4.27128 19.2452 4.18053 19.1997 4.09814C19.1543 4.01574 19.0921 3.94348 19.017 3.88585C18.9419 3.82822 18.8556 3.78646 18.7634 3.76319C13.8949 2.53956 8.88189 1.96517 3.85846 2.05538L3.64431 1.26653C3.54605 0.903257 3.32881 0.582151 3.02634 0.353116C2.72387 0.124081 2.35311 -5.57558e-05 1.97169 1.87865e-08H0.692308ZM2.07692 16.3775C2.07692 16.0156 2.2228 15.6684 2.48247 15.4125C2.74213 15.1565 3.09432 15.0127 3.46154 15.0127C3.82876 15.0127 4.18094 15.1565 4.44061 15.4125C4.70028 15.6684 4.84615 16.0156 4.84615 16.3775C4.84615 16.7395 4.70028 17.0866 4.44061 17.3426C4.18094 17.5985 3.82876 17.7423 3.46154 17.7423C3.09432 17.7423 2.74213 17.5985 2.48247 17.3426C2.2228 17.0866 2.07692 16.7395 2.07692 16.3775ZM13.8462 16.3775C13.8462 16.0156 13.992 15.6684 14.2517 15.4125C14.5114 15.1565 14.8635 15.0127 15.2308 15.0127C15.598 15.0127 15.9502 15.1565 16.2098 15.4125C16.4695 15.6684 16.6154 16.0156 16.6154 16.3775C16.6154 16.7395 16.4695 17.0866 16.2098 17.3426C15.9502 17.5985 15.598 17.7423 15.2308 17.7423C14.8635 17.7423 14.5114 17.5985 14.2517 17.3426C13.992 17.0866 13.8462 16.7395 13.8462 16.3775Z" fill="white"/>
</svg>
