<svg width="24" height="21" viewBox="0 0 24 21" fill="none" xmlns="http://www.w3.org/2000/svg">
<path fill-rule="evenodd" clip-rule="evenodd" d="M6.89847 0.0159689C8.57937 0.137769 10.3309 0.957163 12.0075 2.61551C13.6837 0.957626 15.4337 0.139792 17.113 0.0207004C19.0084 -0.113717 20.6839 0.652312 21.8962 1.8609C24.2796 4.23714 25.0281 8.53695 22.0706 11.4945C22.0606 11.5045 22.0504 11.5142 22.0399 11.5237L12.5829 20.0899C12.2563 20.3856 11.7587 20.3856 11.4321 20.0899L1.97509 11.5237C1.96463 11.5142 1.95441 11.5045 1.94444 11.4945C-1.02853 8.52154 -0.284063 4.22123 2.10719 1.84684C3.32243 0.640158 5.00139 -0.121483 6.89847 0.0159689Z" fill="white"/>
</svg>
