<svg xmlns="http://www.w3.org/2000/svg" viewBox="0 0 8 15" height="15" width="8"><g xmlns="http://www.w3.org/2000/svg" transform="matrix(-1 0 0 -1 8 15)"><path d="M7.24844 14.7253C7.09232 14.9012 6.88061 15 6.65986 15C6.43911 15 6.2274 14.9012 6.07128 14.7253L0.243738 8.15767C0.087667 7.98172 -8.10623e-06 7.74312 -8.10623e-06 7.49434C-8.10623e-06 7.24555 0.087667 7.00695 0.243738 6.83101L6.07128 0.263372C6.22829 0.0924649 6.43858 -0.00210324 6.65686 3.44515e-05C6.87514 0.00217214 7.08395 0.100845 7.2383 0.274801C7.39265 0.448757 7.48021 0.684079 7.4821 0.930081C7.484 1.17608 7.40009 1.41308 7.24844 1.59003L2.00948 7.49434L7.24844 13.3986C7.40451 13.5746 7.49219 13.8132 7.49219 14.062C7.49219 14.3108 7.40451 14.5494 7.24844 14.7253Z" fill="white" /></g></svg>