<svg width="8" height="15" viewBox="0 0 8 15" fill="none" xmlns="http://www.w3.org/2000/svg">
<path d="M7.256 14.7253C7.09972 14.9012 6.88779 15 6.66681 15C6.44582 15 6.23389 14.9012 6.07761 14.7253L0.243999 8.15767C0.0877662 7.98172 0 7.74312 0 7.49434C0 7.24555 0.0877662 7.00695 0.243999 6.83101L6.07761 0.263372C6.23479 0.0924649 6.4453 -0.00210324 6.66381 3.44515e-05C6.88231 0.00217214 7.09133 0.100845 7.24585 0.274801C7.40036 0.448757 7.48801 0.684079 7.48991 0.930081C7.4918 1.17608 7.40781 1.41308 7.256 1.59003L2.01158 7.49434L7.256 13.3986C7.41223 13.5746 7.5 13.8132 7.5 14.062C7.5 14.3108 7.41223 14.5494 7.256 14.7253Z" fill="#070E16"/>
</svg>
