<svg width="8" height="15" viewBox="0 0 8 15" fill="none" xmlns="http://www.w3.org/2000/svg">
<path d="M0.244 0.274702C0.400281 0.0988105 0.612214 0 0.833195 0C1.05418 0 1.26611 0.0988105 1.42239 0.274702L7.256 6.84233C7.41223 7.01828 7.5 7.25688 7.5 7.50566C7.5 7.75445 7.41223 7.99305 7.256 8.16899L1.42239 14.7366C1.26521 14.9075 1.0547 15.0021 0.836194 15C0.617687 14.9978 0.408666 14.8992 0.254152 14.7252C0.0996379 14.5512 0.0119927 14.3159 0.0100939 14.0699C0.00819516 13.8239 0.0921948 13.5869 0.244 13.41L5.48842 7.50566L0.244 1.60136C0.0877671 1.42542 0 1.18682 0 0.938033C0 0.689247 0.0877671 0.450647 0.244 0.274702Z" fill="#070E16"/>
</svg>
