<svg width="17" height="10" viewBox="0 0 17 10" fill="none" xmlns="http://www.w3.org/2000/svg">
<path d="M12.1627 0.183135C12.2669 0.0658737 12.4081 0 12.5555 0C12.7028 0 12.8441 0.0658737 12.9483 0.183135L16.8373 4.56156C16.9415 4.67885 17 4.83792 17 5.00378C17 5.16963 16.9415 5.3287 16.8373 5.446L12.9483 9.82442C12.8435 9.93836 12.7031 10.0014 12.5575 9.99998C12.4118 9.99855 12.2724 9.93277 12.1694 9.8168C12.0664 9.70083 12.008 9.54395 12.0067 9.37995C12.0055 9.21594 12.0615 9.05794 12.1627 8.93998L15.6589 5.00378L12.1627 1.06758C12.0585 0.950279 12 0.791212 12 0.625355C12 0.459498 12.0585 0.300431 12.1627 0.183135Z" fill="white"/>
<path d="M6.16267 0.183135C6.26685 0.0658737 6.40814 0 6.55546 0C6.70278 0 6.84407 0.0658737 6.94826 0.183135L10.8373 4.56156C10.9415 4.67885 11 4.83792 11 5.00378C11 5.16963 10.9415 5.3287 10.8373 5.446L6.94826 9.82442C6.84348 9.93836 6.70313 10.0014 6.55746 9.99998C6.41179 9.99855 6.27244 9.93277 6.16943 9.8168C6.06643 9.70083 6.008 9.54395 6.00673 9.37995C6.00546 9.21594 6.06146 9.05794 6.16267 8.93998L9.65894 5.00378L6.16267 1.06758C6.05851 0.950279 6 0.791212 6 0.625355C6 0.459498 6.05851 0.300431 6.16267 0.183135Z" fill="white"/>
<path d="M0.162667 0.183135C0.266854 0.0658737 0.408143 0 0.555463 0C0.702784 0 0.844073 0.0658737 0.94826 0.183135L4.83733 4.56156C4.94149 4.67885 5 4.83792 5 5.00378C5 5.16963 4.94149 5.3287 4.83733 5.446L0.94826 9.82442C0.843476 9.93836 0.703135 10.0014 0.557463 9.99998C0.411791 9.99855 0.272444 9.93277 0.169435 9.8168C0.0664252 9.70083 0.00799514 9.54395 0.00672929 9.37995C0.00546344 9.21594 0.0614632 9.05794 0.162667 8.93998L3.65894 5.00378L0.162667 1.06758C0.0585114 0.950279 0 0.791212 0 0.625355C0 0.459498 0.0585114 0.300431 0.162667 0.183135Z" fill="white"/>
</svg>
