<svg width="22" height="24" viewBox="0 0 22 24" fill="none" xmlns="http://www.w3.org/2000/svg">
<path fill-rule="evenodd" clip-rule="evenodd" d="M8.82213 3.4501C9.38474 2.88749 10.1478 2.57143 10.9435 2.57143C11.7391 2.57143 12.5021 2.88749 13.0648 3.4501C13.6274 4.01271 13.9435 4.77578 13.9435 5.57143V6.70773H7.94345V5.57143C7.94345 4.77578 8.25951 4.01271 8.82213 3.4501ZM5.37202 6.70773V5.57143C5.37202 4.0938 5.95901 2.67669 7.00385 1.63183C8.04869 0.586989 9.46581 0 10.9435 0C12.4211 0 13.8382 0.586989 14.883 1.63183C15.9279 2.67669 16.5149 4.0938 16.5149 5.57143V6.70773H19.5149C19.9515 6.70773 20.3184 7.03593 20.3667 7.46986L21.8189 20.49C21.8229 20.5251 21.8282 20.5658 21.834 20.6114C21.8703 20.8903 21.9303 21.3502 21.8376 21.7937C21.6417 22.7309 20.9271 23.5003 19.9983 23.7585C19.5794 23.8749 19.103 23.8618 18.8129 23.8538C18.7522 23.8521 18.6998 23.8505 18.6578 23.8505H3.22917C3.18705 23.8505 3.13459 23.8521 3.07401 23.8538C2.78391 23.8618 2.3076 23.8749 1.88851 23.7585C0.959828 23.5003 0.24516 22.7311 0.0492686 21.7937C-0.0434229 21.3502 0.0164913 20.8903 0.052817 20.6114C0.0587485 20.5658 0.0640627 20.5251 0.0679713 20.49L1.52016 7.46986C1.56855 7.03593 1.93539 6.70773 2.37202 6.70773H5.37202Z" fill="white"/>
</svg>
